# xmcd
#
# Track frame offsets:
#	180
#	12573
#	27422
#	37620
#	48612
#	60184
#	68046
#	78820
#	93724
#	105702
#	115551
#	127173
#
# Disc length: 1921 seconds
#
# Revision: 1
# Processed by: cddbd v1.5.2PL0 Copyright (c) Steve Scherf et al.
# Submitted via: audiograbber 1.83.01
#
DISCID=93077f0c
DTITLE=Live Bait (The Band) - Off The Hook
DYEAR=1996
DGENRE=Bluegrass
TTITLE0=Won't You Stay
TTITLE1=Keep On Lovin' You
TTITLE2=Peel Me A Grape
TTITLE3=You And Me Got To Go Fishin'
TTITLE4=Think Of What You've Done
TTITLE5=Whoa Mule
TTITLE6=Let Me In
TTITLE7=Hamilton County Breakdown
TTITLE8=Your Love Is Like A Flower
TTITLE9=Outlaw
TTITLE10=Midnight Rider
TTITLE11=When The Last Leaves Fall
EXTD=
EXTT0=
EXTT1=
EXTT2=
EXTT3=
EXTT4=
EXTT5=
EXTT6=
EXTT7=
EXTT8=
EXTT9=
EXTT10=
EXTT11=
PLAYORDER=
